<svg xmlns="http://www.w3.org/2000/svg" data-v-423bf9ae="" viewBox="0 0 90 90" class="iconLeftSlogan">    <!---->    <!---->    <!---->    <!---->
    <g data-v-423bf9ae="" id="27fe41d9-7565-4967-bd7d-e2b0041f1d7b" stroke="none" fill="#F56B11">
        <path d="M53.977 27.282c4.021 0 5.567-1.703 7.271-3.404 1.702-1.702 8.511-7.581 4.487-9.902-4.023-2.32-7.755 2.655-7.755 2.655-.756 1.008-1.791.89-2.301-.262 0 0-3.867-8.736-8.201-8.736-4.333 0-4.176 7.891-5.879 8.819-1.702.928-6.449-3.529-8.509-.154-1.529 2.503.915 4.669.915 4.669a72.077 72.077 0 0 1 3.307 3.165s3.049 3.151 5.369 3.151l11.296-.001zM82.567 85.117s-6.003-20.238-8.014-33.699c-2.01-13.46-15.626-20.268-20.27-20.268h-8.687c-5.524 0-18.259 6.807-20.271 20.268-2.01 13.461-8.013 33.699-8.013 33.699-.358 1.207.264 2.669 1.383 3.247 0 0 6.064 3.128 29.71 3.356v-6.944c0-.642-.383-1.524-.853-1.962l-2.562-2.39c-.469-.438-.853-1.32-.853-1.962v-1.777c0-.641.397-.822.883-.404l4.034 3.484c.485.42 1.28.42 1.766.001l4.04-3.485c.485-.419.883-.236.883.404v1.777c0 .642-.384 1.524-.853 1.962l-2.562 2.39c-.47.438-.854 1.32-.854 1.962v6.958c25.666-.025 29.889-3.078 29.889-3.078 1.021-.738 1.563-2.331 1.204-3.539zM42.453 48.45c.062-.542.453-.698.87-.347l4.542 3.826c.417.352.759 1.086.759 1.631v3.633c0 .546-.335.697-.744.336 0 0-3.991-3.523-4.918-4.451-.926-.926-.509-4.628-.509-4.628zm6.1 26.463c0 .546-.334.696-.742.333 0 0-4.261-3.785-4.921-4.445-.658-.658-.449-4.625-.449-4.625.029-.545.394-.703.811-.352l4.542 3.826c.417.352.759 1.086.759 1.632v3.631zm.093-8.773c0 .546-.335.696-.744.336 0 0-4.004-3.533-4.919-4.447-.913-.914-.505-4.628-.505-4.628.06-.543.45-.699.867-.348l4.542 3.826c.417.352.759 1.085.759 1.631v3.63zm2.064-17.768c-.424.343-1.119.343-1.543 0l-2.051-1.66c-.424-.343-.564-1.019-.31-1.502l2.67-5.074c.254-.483.67-.483.924 0l2.672 5.074c.255.483.115 1.159-.31 1.502l-2.052 1.66zm6.132 22.429l-4.926 4.44c-.406.365-.737.218-.737-.328v-3.631c0-.546.341-1.28.759-1.632l4.541-3.826c.418-.352.82-.196.896.344 0 0 .519 3.685-.533 4.633zm-5.571-4.661v-3.63c0-.546.342-1.279.758-1.631l4.542-3.826c.417-.352.799-.194.847.35 0 0 .34 3.801-.484 4.626s-4.919 4.446-4.919 4.446c-.41.361-.744.211-.744-.335zm5.642-13.062l-4.927 4.443c-.404.365-.736.218-.736-.328V53.56c0-.545.342-1.279.759-1.631l4.541-3.826c.417-.352.81-.195.872.347 0 0 .432 3.78-.509 4.628z"/>
    </g>    <!----></svg>