<svg data-v-423bf9ae="" xmlns="http://www.w3.org/2000/svg" viewBox="0 0 279 90" class="iconLeftSlogan"><!----><!----><!----><g data-v-423bf9ae="" id="0061ad31-f51e-4a8c-9153-76e3d6f8beb3" fill="white" transform="matrix(4.477611749096269,0,0,4.477611749096269,83.47700773912766,-13.208954158087423)"><path d="M11.90 13.55L10.56 13.55L10.54 6.41L7 12.36L6.36 12.36L2.81 6.45L2.81 13.55L1.47 13.55L1.47 3.75L2.62 3.75L6.71 10.64L10.74 3.75L11.89 3.75L11.90 13.55ZM14.64 13.55L14.64 6.13L15.99 6.13L15.99 13.55L14.64 13.55ZM15.32 4.70L15.32 4.70Q14.92 4.70 14.67 4.45L14.67 4.45L14.67 4.45Q14.41 4.20 14.41 3.84L14.41 3.84L14.41 3.84Q14.41 3.47 14.67 3.21L14.67 3.21L14.67 3.21Q14.92 2.95 15.32 2.95L15.32 2.95L15.32 2.95Q15.71 2.95 15.97 3.20L15.97 3.20L15.97 3.20Q16.23 3.44 16.23 3.81L16.23 3.81L16.23 3.81Q16.23 4.19 15.97 4.45L15.97 4.45L15.97 4.45Q15.71 4.70 15.32 4.70L15.32 4.70ZM22.51 6.06L22.51 6.06Q23.93 6.06 24.76 6.88L24.76 6.88L24.76 6.88Q25.59 7.70 25.59 9.28L25.59 9.28L25.59 13.55L24.25 13.55L24.25 9.44L24.25 9.44Q24.25 8.36 23.73 7.81L23.73 7.81L23.73 7.81Q23.21 7.27 22.25 7.27L22.25 7.27L22.25 7.27Q21.15 7.27 20.52 7.90L20.52 7.90L20.52 7.90Q19.89 8.54 19.89 9.73L19.89 9.73L19.89 13.55L18.55 13.55L18.55 6.13L19.84 6.13L19.84 7.25L19.84 7.25Q20.24 6.68 20.94 6.37L20.94 6.37L20.94 6.37Q21.63 6.06 22.51 6.06L22.51 6.06ZM33.91 6.13L35.18 6.13L35.18 12.54L35.18 12.54Q35.18 14.49 34.22 15.42L34.22 15.42L34.22 15.42Q33.25 16.35 31.33 16.35L31.33 16.35L31.33 16.35Q30.28 16.35 29.33 16.06L29.33 16.06L29.33 16.06Q28.38 15.78 27.79 15.25L27.79 15.25L28.43 14.21L28.43 14.21Q28.95 14.66 29.72 14.92L29.72 14.92L29.72 14.92Q30.48 15.18 31.29 15.18L31.29 15.18L31.29 15.18Q32.59 15.18 33.22 14.56L33.22 14.56L33.22 14.56Q33.84 13.94 33.84 12.68L33.84 12.68L33.84 12.10L33.84 12.10Q33.36 12.67 32.67 12.96L32.67 12.96L32.67 12.96Q31.98 13.24 31.16 13.24L31.16 13.24L31.16 13.24Q30.10 13.24 29.24 12.79L29.24 12.79L29.24 12.79Q28.38 12.33 27.89 11.52L27.89 11.52L27.89 11.52Q27.40 10.70 27.40 9.65L27.40 9.65L27.40 9.65Q27.40 8.60 27.89 7.78L27.89 7.78L27.89 7.78Q28.38 6.96 29.24 6.51L29.24 6.51L29.24 6.51Q30.10 6.06 31.16 6.06L31.16 6.06L31.16 6.06Q32.00 6.06 32.73 6.37L32.73 6.37L32.73 6.37Q33.45 6.68 33.91 7.28L33.91 7.28L33.91 6.13ZM31.32 12.07L31.32 12.07Q32.05 12.07 32.63 11.76L32.63 11.76L32.63 11.76Q33.21 11.45 33.54 10.90L33.54 10.90L33.54 10.90Q33.87 10.35 33.87 9.65L33.87 9.65L33.87 9.65Q33.87 8.57 33.15 7.90L33.15 7.90L33.15 7.90Q32.44 7.24 31.32 7.24L31.32 7.24L31.32 7.24Q30.18 7.24 29.47 7.90L29.47 7.90L29.47 7.90Q28.76 8.57 28.76 9.65L28.76 9.65L28.76 9.65Q28.76 10.35 29.09 10.90L29.09 10.90L29.09 10.90Q29.41 11.45 30.00 11.76L30.00 11.76L30.00 11.76Q30.58 12.07 31.32 12.07L31.32 12.07ZM40.45 6.06L40.45 6.06Q41.99 6.06 42.80 6.82L42.80 6.82L42.80 6.82Q43.62 7.57 43.62 9.07L43.62 9.07L43.62 13.55L42.35 13.55L42.35 12.57L42.35 12.57Q42.01 13.09 41.39 13.36L41.39 13.36L41.39 13.36Q40.77 13.64 39.91 13.64L39.91 13.64L39.91 13.64Q38.67 13.64 37.92 13.03L37.92 13.03L37.92 13.03Q37.17 12.43 37.17 11.45L37.17 11.45L37.17 11.45Q37.17 10.47 37.88 9.88L37.88 9.88L37.88 9.88Q38.60 9.28 40.15 9.28L40.15 9.28L42.28 9.28L42.28 9.02L42.28 9.02Q42.28 8.15 41.78 7.69L41.78 7.69L41.78 7.69Q41.27 7.22 40.29 7.22L40.29 7.22L40.29 7.22Q39.63 7.22 39.00 7.44L39.00 7.44L39.00 7.44Q38.37 7.66 37.94 8.02L37.94 8.02L37.38 7.01L37.38 7.01Q37.95 6.55 38.75 6.31L38.75 6.31L38.75 6.31Q39.55 6.06 40.45 6.06L40.45 6.06ZM40.14 12.60L40.14 12.60Q40.91 12.60 41.47 12.26L41.47 12.26L41.47 12.26Q42.03 11.91 42.28 11.28L42.28 11.28L42.28 10.25L40.21 10.25L40.21 10.25Q38.50 10.25 38.50 11.40L38.50 11.40L38.50 11.40Q38.50 11.96 38.93 12.28L38.93 12.28L38.93 12.28Q39.37 12.60 40.14 12.60L40.14 12.60Z"></path></g><!----><g data-v-423bf9ae="" id="5d2c1bd4-0311-4a10-a788-46f5b0af3d8d" transform="matrix(1.0701418796536712,0,0,1.0701418796536712,-18.236746650075588,-7.535393060510842)" stroke="none" fill="white"><path d="M53.977 27.282c4.021 0 5.567-1.703 7.271-3.404 1.702-1.702 8.511-7.581 4.487-9.902-4.023-2.32-7.755 2.655-7.755 2.655-.756 1.008-1.791.89-2.301-.262 0 0-3.867-8.736-8.201-8.736-4.333 0-4.176 7.891-5.879 8.819-1.702.928-6.449-3.529-8.509-.154-1.529 2.503.915 4.669.915 4.669a72.077 72.077 0 0 1 3.307 3.165s3.049 3.151 5.369 3.151l11.296-.001zM82.567 85.117s-6.003-20.238-8.014-33.699c-2.01-13.46-15.626-20.268-20.27-20.268h-8.687c-5.524 0-18.259 6.807-20.271 20.268-2.01 13.461-8.013 33.699-8.013 33.699-.358 1.207.264 2.669 1.383 3.247 0 0 6.064 3.128 29.71 3.356v-6.944c0-.642-.383-1.524-.853-1.962l-2.562-2.39c-.469-.438-.853-1.32-.853-1.962v-1.777c0-.641.397-.822.883-.404l4.034 3.484c.485.42 1.28.42 1.766.001l4.04-3.485c.485-.419.883-.236.883.404v1.777c0 .642-.384 1.524-.853 1.962l-2.562 2.39c-.47.438-.854 1.32-.854 1.962v6.958c25.666-.025 29.889-3.078 29.889-3.078 1.021-.738 1.563-2.331 1.204-3.539zM42.453 48.45c.062-.542.453-.698.87-.347l4.542 3.826c.417.352.759 1.086.759 1.631v3.633c0 .546-.335.697-.744.336 0 0-3.991-3.523-4.918-4.451-.926-.926-.509-4.628-.509-4.628zm6.1 26.463c0 .546-.334.696-.742.333 0 0-4.261-3.785-4.921-4.445-.658-.658-.449-4.625-.449-4.625.029-.545.394-.703.811-.352l4.542 3.826c.417.352.759 1.086.759 1.632v3.631zm.093-8.773c0 .546-.335.696-.744.336 0 0-4.004-3.533-4.919-4.447-.913-.914-.505-4.628-.505-4.628.06-.543.45-.699.867-.348l4.542 3.826c.417.352.759 1.085.759 1.631v3.63zm2.064-17.768c-.424.343-1.119.343-1.543 0l-2.051-1.66c-.424-.343-.564-1.019-.31-1.502l2.67-5.074c.254-.483.67-.483.924 0l2.672 5.074c.255.483.115 1.159-.31 1.502l-2.052 1.66zm6.132 22.429l-4.926 4.44c-.406.365-.737.218-.737-.328v-3.631c0-.546.341-1.28.759-1.632l4.541-3.826c.418-.352.82-.196.896.344 0 0 .519 3.685-.533 4.633zm-5.571-4.661v-3.63c0-.546.342-1.279.758-1.631l4.542-3.826c.417-.352.799-.194.847.35 0 0 .34 3.801-.484 4.626s-4.919 4.446-4.919 4.446c-.41.361-.744.211-.744-.335zm5.642-13.062l-4.927 4.443c-.404.365-.736.218-.736-.328V53.56c0-.545.342-1.279.759-1.631l4.541-3.826c.417-.352.81-.195.872.347 0 0 .432 3.78-.509 4.628z"></path></g><!----><g data-v-423bf9ae="" id="debd55c6-2c01-401b-877c-7170e5522ec0" fill="white" transform="matrix(1.0312482494654078,0,0,1.0312482494654078,88.54316960348909,56.246254618029866)"><path d="M8.39 4.97L2.87 4.97L2.87 8.39L7.78 8.39L7.78 9.59L2.87 9.59L2.87 13.55L1.47 13.55L1.47 3.75L8.39 3.75L8.39 4.97ZM14.78 13.66L14.78 13.66Q13.30 13.66 12.11 13.01L12.11 13.01L12.11 13.01Q10.92 12.36 10.24 11.21L10.24 11.21L10.24 11.21Q9.56 10.07 9.56 8.65L9.56 8.65L9.56 8.65Q9.56 7.24 10.24 6.09L10.24 6.09L10.24 6.09Q10.92 4.94 12.11 4.29L12.11 4.29L12.11 4.29Q13.30 3.64 14.78 3.64L14.78 3.64L14.78 3.64Q16.25 3.64 17.44 4.29L17.44 4.29L17.44 4.29Q18.63 4.94 19.31 6.08L19.31 6.08L19.31 6.08Q19.98 7.22 19.98 8.65L19.98 8.65L19.98 8.65Q19.98 10.08 19.31 11.22L19.31 11.22L19.31 11.22Q18.63 12.36 17.44 13.01L17.44 13.01L17.44 13.01Q16.25 13.66 14.78 13.66L14.78 13.66ZM14.78 12.42L14.78 12.42Q15.86 12.42 16.72 11.93L16.72 11.93L16.72 11.93Q17.58 11.44 18.08 10.58L18.08 10.58L18.08 10.58Q18.58 9.72 18.58 8.65L18.58 8.65L18.58 8.65Q18.58 7.59 18.08 6.73L18.08 6.73L18.08 6.73Q17.58 5.87 16.72 5.38L16.72 5.38L16.72 5.38Q15.86 4.89 14.78 4.89L14.78 4.89L14.78 4.89Q13.71 4.89 12.83 5.38L12.83 5.38L12.83 5.38Q11.96 5.87 11.46 6.73L11.46 6.73L11.46 6.73Q10.96 7.59 10.96 8.65L10.96 8.65L10.96 8.65Q10.96 9.72 11.46 10.58L11.46 10.58L11.46 10.58Q11.96 11.44 12.83 11.93L12.83 11.93L12.83 11.93Q13.71 12.42 14.78 12.42L14.78 12.42ZM26.54 13.66L26.54 13.66Q25.06 13.66 23.87 13.01L23.87 13.01L23.87 13.01Q22.68 12.36 22.00 11.21L22.00 11.21L22.00 11.21Q21.32 10.07 21.32 8.65L21.32 8.65L21.32 8.65Q21.32 7.24 22.00 6.09L22.00 6.09L22.00 6.09Q22.68 4.94 23.87 4.29L23.87 4.29L23.87 4.29Q25.06 3.64 26.54 3.64L26.54 3.64L26.54 3.64Q28.01 3.64 29.20 4.29L29.20 4.29L29.20 4.29Q30.39 4.94 31.07 6.08L31.07 6.08L31.07 6.08Q31.74 7.22 31.74 8.65L31.74 8.65L31.74 8.65Q31.74 10.08 31.07 11.22L31.07 11.22L31.07 11.22Q30.39 12.36 29.20 13.01L29.20 13.01L29.20 13.01Q28.01 13.66 26.54 13.66L26.54 13.66ZM26.54 12.42L26.54 12.42Q27.62 12.42 28.48 11.93L28.48 11.93L28.48 11.93Q29.34 11.44 29.84 10.58L29.84 10.58L29.84 10.58Q30.34 9.72 30.34 8.65L30.34 8.65L30.34 8.65Q30.34 7.59 29.84 6.73L29.84 6.73L29.84 6.73Q29.34 5.87 28.48 5.38L28.48 5.38L28.48 5.38Q27.62 4.89 26.54 4.89L26.54 4.89L26.54 4.89Q25.47 4.89 24.59 5.38L24.59 5.38L24.59 5.38Q23.72 5.87 23.22 6.73L23.22 6.73L23.22 6.73Q22.72 7.59 22.72 8.65L22.72 8.65L22.72 8.65Q22.72 9.72 23.22 10.58L23.22 10.58L23.22 10.58Q23.72 11.44 24.59 11.93L24.59 11.93L24.59 11.93Q25.47 12.42 26.54 12.42L26.54 12.42ZM33.88 13.55L33.88 3.75L38.01 3.75L38.01 3.75Q39.56 3.75 40.77 4.37L40.77 4.37L40.77 4.37Q41.97 4.98 42.64 6.10L42.64 6.10L42.64 6.10Q43.30 7.21 43.30 8.65L43.30 8.65L43.30 8.65Q43.30 10.09 42.64 11.21L42.64 11.21L42.64 11.21Q41.97 12.32 40.77 12.94L40.77 12.94L40.77 12.94Q39.56 13.55 38.01 13.55L38.01 13.55L33.88 13.55ZM35.28 12.33L37.93 12.33L37.93 12.33Q39.12 12.33 40.02 11.87L40.02 11.87L40.02 11.87Q40.92 11.41 41.41 10.58L41.41 10.58L41.41 10.58Q41.90 9.74 41.90 8.65L41.90 8.65L41.90 8.65Q41.90 7.56 41.41 6.73L41.41 6.73L41.41 6.73Q40.92 5.89 40.02 5.43L40.02 5.43L40.02 5.43Q39.12 4.97 37.93 4.97L37.93 4.97L35.28 4.97L35.28 12.33ZM56.53 13.55L55.45 11.10L50.25 11.10L49.17 13.55L47.73 13.55L52.16 3.75L53.55 3.75L58.00 13.55L56.53 13.55ZM50.74 9.98L54.96 9.98L52.85 5.18L50.74 9.98ZM66.49 3.75L67.89 3.75L67.89 13.55L66.74 13.55L60.86 6.24L60.86 13.55L59.46 13.55L59.46 3.75L60.61 3.75L66.49 11.06L66.49 3.75ZM70.83 13.55L70.83 3.75L74.96 3.75L74.96 3.75Q76.51 3.75 77.71 4.37L77.71 4.37L77.71 4.37Q78.92 4.98 79.58 6.10L79.58 6.10L79.58 6.10Q80.25 7.21 80.25 8.65L80.25 8.65L80.25 8.65Q80.25 10.09 79.58 11.21L79.58 11.21L79.58 11.21Q78.92 12.32 77.71 12.94L77.71 12.94L77.71 12.94Q76.51 13.55 74.96 13.55L74.96 13.55L70.83 13.55ZM72.23 12.33L74.87 12.33L74.87 12.33Q76.06 12.33 76.96 11.87L76.96 11.87L76.96 11.87Q77.87 11.41 78.36 10.58L78.36 10.58L78.36 10.58Q78.85 9.74 78.85 8.65L78.85 8.65L78.85 8.65Q78.85 7.56 78.36 6.73L78.36 6.73L78.36 6.73Q77.87 5.89 76.96 5.43L76.96 5.43L76.96 5.43Q76.06 4.97 74.87 4.97L74.87 4.97L72.23 4.97L72.23 12.33ZM90.54 13.66L90.54 13.66Q89.07 13.66 87.88 13.01L87.88 13.01L87.88 13.01Q86.70 12.36 86.03 11.22L86.03 11.22L86.03 11.22Q85.36 10.08 85.36 8.65L85.36 8.65L85.36 8.65Q85.36 7.22 86.03 6.08L86.03 6.08L86.03 6.08Q86.70 4.94 87.89 4.29L87.89 4.29L87.89 4.29Q89.08 3.64 90.55 3.64L90.55 3.64L90.55 3.64Q91.70 3.64 92.65 4.02L92.65 4.02L92.65 4.02Q93.60 4.41 94.28 5.17L94.28 5.17L93.37 6.05L93.37 6.05Q92.26 4.89 90.61 4.89L90.61 4.89L90.61 4.89Q89.52 4.89 88.63 5.38L88.63 5.38L88.63 5.38Q87.75 5.87 87.25 6.73L87.25 6.73L87.25 6.73Q86.76 7.59 86.76 8.65L86.76 8.65L86.76 8.65Q86.76 9.72 87.25 10.58L87.25 10.58L87.25 10.58Q87.75 11.44 88.63 11.93L88.63 11.93L88.63 11.93Q89.52 12.42 90.61 12.42L90.61 12.42L90.61 12.42Q92.25 12.42 93.37 11.24L93.37 11.24L94.28 12.12L94.28 12.12Q93.60 12.88 92.64 13.27L92.64 13.27L92.64 13.27Q91.69 13.66 90.54 13.66L90.54 13.66ZM96.28 13.55L96.28 3.75L97.68 3.75L97.68 12.33L102.98 12.33L102.98 13.55L96.28 13.55ZM104.59 13.55L104.59 3.75L105.99 3.75L105.99 13.55L104.59 13.55ZM119.36 13.55L118.02 13.55L118.01 6.41L114.46 12.36L113.82 12.36L110.28 6.45L110.28 13.55L108.93 13.55L108.93 3.75L110.08 3.75L114.17 10.64L118.20 3.75L119.35 3.75L119.36 13.55ZM129.63 13.55L128.55 11.10L123.34 11.10L122.26 13.55L120.82 13.55L125.26 3.75L126.64 3.75L131.10 13.55L129.63 13.55ZM123.83 9.98L128.06 9.98L125.94 5.18L123.83 9.98ZM134.50 13.55L134.50 4.97L131.14 4.97L131.14 3.75L139.24 3.75L139.24 4.97L135.88 4.97L135.88 13.55L134.50 13.55ZM142.17 12.33L147.88 12.33L147.88 13.55L140.77 13.55L140.77 3.75L147.69 3.75L147.69 4.97L142.17 4.97L142.17 7.98L147.08 7.98L147.08 9.17L142.17 9.17L142.17 12.33Z"></path></g></svg>