<svg data-v-423bf9ae="" xmlns="http://www.w3.org/2000/svg" viewBox="0 0 188.73132497596777 60" class="font"><!----><!----><!----><g data-v-423bf9ae="" id="c5b247ef-5a1f-46a2-abb3-cdfbdcf2c770" fill="white" transform="matrix(4.477611749096269,0,0,4.477611749096269,-6.582089550911405,-13.208954158087423)"><path d="M11.90 13.55L10.56 13.55L10.54 6.41L7 12.36L6.36 12.36L2.81 6.45L2.81 13.55L1.47 13.55L1.47 3.75L2.62 3.75L6.71 10.64L10.74 3.75L11.89 3.75L11.90 13.55ZM14.64 13.55L14.64 6.13L15.99 6.13L15.99 13.55L14.64 13.55ZM15.32 4.70L15.32 4.70Q14.92 4.70 14.67 4.45L14.67 4.45L14.67 4.45Q14.41 4.20 14.41 3.84L14.41 3.84L14.41 3.84Q14.41 3.47 14.67 3.21L14.67 3.21L14.67 3.21Q14.92 2.95 15.32 2.95L15.32 2.95L15.32 2.95Q15.71 2.95 15.97 3.20L15.97 3.20L15.97 3.20Q16.23 3.44 16.23 3.81L16.23 3.81L16.23 3.81Q16.23 4.19 15.97 4.45L15.97 4.45L15.97 4.45Q15.71 4.70 15.32 4.70L15.32 4.70ZM22.51 6.06L22.51 6.06Q23.93 6.06 24.76 6.88L24.76 6.88L24.76 6.88Q25.59 7.70 25.59 9.28L25.59 9.28L25.59 13.55L24.25 13.55L24.25 9.44L24.25 9.44Q24.25 8.36 23.73 7.81L23.73 7.81L23.73 7.81Q23.21 7.27 22.25 7.27L22.25 7.27L22.25 7.27Q21.15 7.27 20.52 7.90L20.52 7.90L20.52 7.90Q19.89 8.54 19.89 9.73L19.89 9.73L19.89 13.55L18.55 13.55L18.55 6.13L19.84 6.13L19.84 7.25L19.84 7.25Q20.24 6.68 20.94 6.37L20.94 6.37L20.94 6.37Q21.63 6.06 22.51 6.06L22.51 6.06ZM33.91 6.13L35.18 6.13L35.18 12.54L35.18 12.54Q35.18 14.49 34.22 15.42L34.22 15.42L34.22 15.42Q33.25 16.35 31.33 16.35L31.33 16.35L31.33 16.35Q30.28 16.35 29.33 16.06L29.33 16.06L29.33 16.06Q28.38 15.78 27.79 15.25L27.79 15.25L28.43 14.21L28.43 14.21Q28.95 14.66 29.72 14.92L29.72 14.92L29.72 14.92Q30.48 15.18 31.29 15.18L31.29 15.18L31.29 15.18Q32.59 15.18 33.22 14.56L33.22 14.56L33.22 14.56Q33.84 13.94 33.84 12.68L33.84 12.68L33.84 12.10L33.84 12.10Q33.36 12.67 32.67 12.96L32.67 12.96L32.67 12.96Q31.98 13.24 31.16 13.24L31.16 13.24L31.16 13.24Q30.10 13.24 29.24 12.79L29.24 12.79L29.24 12.79Q28.38 12.33 27.89 11.52L27.89 11.52L27.89 11.52Q27.40 10.70 27.40 9.65L27.40 9.65L27.40 9.65Q27.40 8.60 27.89 7.78L27.89 7.78L27.89 7.78Q28.38 6.96 29.24 6.51L29.24 6.51L29.24 6.51Q30.10 6.06 31.16 6.06L31.16 6.06L31.16 6.06Q32.00 6.06 32.73 6.37L32.73 6.37L32.73 6.37Q33.45 6.68 33.91 7.28L33.91 7.28L33.91 6.13ZM31.32 12.07L31.32 12.07Q32.05 12.07 32.63 11.76L32.63 11.76L32.63 11.76Q33.21 11.45 33.54 10.90L33.54 10.90L33.54 10.90Q33.87 10.35 33.87 9.65L33.87 9.65L33.87 9.65Q33.87 8.57 33.15 7.90L33.15 7.90L33.15 7.90Q32.44 7.24 31.32 7.24L31.32 7.24L31.32 7.24Q30.18 7.24 29.47 7.90L29.47 7.90L29.47 7.90Q28.76 8.57 28.76 9.65L28.76 9.65L28.76 9.65Q28.76 10.35 29.09 10.90L29.09 10.90L29.09 10.90Q29.41 11.45 30.00 11.76L30.00 11.76L30.00 11.76Q30.58 12.07 31.32 12.07L31.32 12.07ZM40.45 6.06L40.45 6.06Q41.99 6.06 42.80 6.82L42.80 6.82L42.80 6.82Q43.62 7.57 43.62 9.07L43.62 9.07L43.62 13.55L42.35 13.55L42.35 12.57L42.35 12.57Q42.01 13.09 41.39 13.36L41.39 13.36L41.39 13.36Q40.77 13.64 39.91 13.64L39.91 13.64L39.91 13.64Q38.67 13.64 37.92 13.03L37.92 13.03L37.92 13.03Q37.17 12.43 37.17 11.45L37.17 11.45L37.17 11.45Q37.17 10.47 37.88 9.88L37.88 9.88L37.88 9.88Q38.60 9.28 40.15 9.28L40.15 9.28L42.28 9.28L42.28 9.02L42.28 9.02Q42.28 8.15 41.78 7.69L41.78 7.69L41.78 7.69Q41.27 7.22 40.29 7.22L40.29 7.22L40.29 7.22Q39.63 7.22 39.00 7.44L39.00 7.44L39.00 7.44Q38.37 7.66 37.94 8.02L37.94 8.02L37.38 7.01L37.38 7.01Q37.95 6.55 38.75 6.31L38.75 6.31L38.75 6.31Q39.55 6.06 40.45 6.06L40.45 6.06ZM40.14 12.60L40.14 12.60Q40.91 12.60 41.47 12.26L41.47 12.26L41.47 12.26Q42.03 11.91 42.28 11.28L42.28 11.28L42.28 10.25L40.21 10.25L40.21 10.25Q38.50 10.25 38.50 11.40L38.50 11.40L38.50 11.40Q38.50 11.96 38.93 12.28L38.93 12.28L38.93 12.28Q39.37 12.60 40.14 12.60L40.14 12.60Z"></path></g><!----><!----></svg>